<?xml version="1.0" standalone="no"?><!DOCTYPE svg PUBLIC "-//W3C//DTD SVG 1.1//EN" "http://www.w3.org/Graphics/SVG/1.1/DTD/svg11.dtd"><svg width="100%" height="100%" viewBox="0 0 454 199" version="1.1" xmlns="http://www.w3.org/2000/svg" xmlns:xlink="http://www.w3.org/1999/xlink" xml:space="preserve" style="fill-rule:evenodd;clip-rule:evenodd;stroke-linejoin:round;stroke-miterlimit:1.41421;"><g id="BACKGROUND"><path d="M105.979,104.547c-9.721,0 -17.602,7.881 -17.602,17.604l0,52.802l352.035,0l0,-70.406l-334.433,0Z" style="fill:#006892;fill-rule:nonzero;"/><rect x="15.203" y="31.107" width="70.407" height="70.403" style="fill:#231f20;fill-rule:nonzero;"/><path d="M50.459,43.708l8.585,4.948c0,0 0.843,0.388 1.236,1.062c0.354,0.604 0.379,1.261 0.379,1.261l0,7.726c0,0 0.03,0.949 -0.253,1.515c-0.277,0.556 -0.607,0.808 -0.607,0.808l-7.926,4.747c0,0 -0.758,0.504 -1.414,0.504c-0.657,0 -1.617,-0.504 -1.617,-0.504l-7.423,-4.393c0,0 -0.328,-0.102 -0.833,-0.708c-0.504,-0.606 -0.428,-1.666 -0.428,-1.513l0,-8.334c0,0 -0.051,-0.505 0.352,-1.061c0.525,-0.722 1.011,-0.908 1.011,-0.908l8.938,-5.15Z" style="fill:#fff;fill-rule:nonzero;"/><path d="M29.285,44.059l0,2.768l10.359,0l4.804,-2.768l-15.163,0Z" style="fill:#fff;fill-rule:nonzero;"/><path d="M71.528,44.059l-15.032,0l4.802,2.768l10.23,0l0,-2.768Z" style="fill:#fff;fill-rule:nonzero;"/><path d="M63.482,52.364l8.046,0l0,-2.768l-8.075,0c0.025,0.164 0.029,0.265 0.029,0.265l0,2.503Z" style="fill:#fff;fill-rule:nonzero;"/><path d="M37.333,49.595l-8.048,0l0,2.768l8.05,0l0,-2.695c0,0 -0.002,-0.026 -0.002,-0.073" style="fill:#fff;fill-rule:nonzero;"/><rect x="63.482" y="55.132" width="8.046" height="2.767" style="fill:#fff;fill-rule:nonzero;"/><rect x="29.285" y="55.132" width="8.05" height="2.767" style="fill:#fff;fill-rule:nonzero;"/><path d="M62.387,62.677l-1.267,0.759l10.408,0l0,-2.768l-8.101,0c-0.045,0.333 -0.125,0.694 -0.268,0.979c-0.353,0.707 -0.772,1.03 -0.772,1.03" style="fill:#fff;fill-rule:nonzero;"/><path d="M37.883,62.226c-0.387,-0.464 -0.506,-1.137 -0.54,-1.558l-8.058,0l0,2.768l10.18,0l-0.52,-0.308c0,0 -0.418,-0.129 -1.062,-0.902" style="fill:#fff;fill-rule:nonzero;"/><path d="M51.855,68.973l19.666,0c0.002,-0.101 0.007,-0.197 0.007,-0.298l0,-2.47l-15.03,0l-4.222,2.527c0,0 -0.168,0.11 -0.421,0.241" style="fill:#fff;fill-rule:nonzero;"/><path d="M44.143,66.204l-14.857,0l0,2.471c0,0.1 0.006,0.197 0.007,0.297l19.639,0c-0.307,-0.13 -0.519,-0.241 -0.519,-0.241l-4.27,-2.527Z" style="fill:#fff;fill-rule:nonzero;"/><path d="M70.516,74.509c0.317,-0.905 0.564,-1.829 0.733,-2.769l-19.433,0l0,2.769l18.7,0Z" style="fill:#fff;fill-rule:nonzero;"/><path d="M29.565,71.74c0.169,0.939 0.416,1.863 0.733,2.769l18.699,0l0,-2.769l-19.432,0Z" style="fill:#fff;fill-rule:nonzero;"/><path d="M31.529,77.277c0.515,0.951 1.109,1.877 1.783,2.767l15.685,0l0,-2.767l-17.468,0Z" style="fill:#fff;fill-rule:nonzero;"/><path d="M67.501,80.043c0.675,-0.89 1.27,-1.815 1.784,-2.767l-17.469,0l0,2.767l15.685,0Z" style="fill:#fff;fill-rule:nonzero;"/><path d="M35.759,82.813c0.999,0.978 2.095,1.903 3.284,2.768l9.954,0l0,-2.768l-13.238,0Z" style="fill:#fff;fill-rule:nonzero;"/><path d="M61.772,85.581c1.188,-0.865 2.285,-1.79 3.283,-2.768l-13.239,0l0,2.768l9.956,0Z" style="fill:#fff;fill-rule:nonzero;"/><path d="M43.557,88.348c1.703,0.879 3.522,2.016 5.439,2.674l0,-2.674l-5.439,0Z" style="fill:#fff;fill-rule:nonzero;"/><path d="M57.256,88.348l-5.439,0l0,2.674c1.918,-0.658 3.738,-1.795 5.439,-2.674" style="fill:#fff;fill-rule:nonzero;"/><rect x="88.378" y="31.107" width="352.021" height="70.403" style="fill:#231f20;fill-rule:nonzero;"/><path d="M115.829,117.438c0.003,0.001 0.005,0.001 0.008,0.002c-0.003,-0.001 -0.005,-0.001 -0.008,-0.002" style="fill:#fff;fill-rule:nonzero;"/><path d="M115.837,117.44c0.031,0.006 0.062,0.013 0.093,0.018c-0.031,-0.006 -0.062,-0.012 -0.093,-0.018" style="fill:#fff;fill-rule:nonzero;"/><path d="M339.256,61.835c-1.545,0 -3.375,1.535 -4.043,2.354c-0.67,0.82 -2.461,3.675 -2.461,3.675l0,11.349c0,0.375 0.002,1.23 0.002,1.23c0,0 -0.873,-0.002 -1.271,-0.002l-0.913,0c-0.791,0 -1.228,-0.474 -1.228,-1.228l0,-19.237c0,-0.394 -0.002,-1.231 -0.002,-1.231c0,0 0.852,0.001 1.23,0.001l0.913,0c0.794,0 1.269,0.476 1.269,1.23l0,3.569l0.317,-0.476c1.628,-2.498 3.531,-4.323 6.345,-4.323l0.158,0c0.413,0 0.743,0.143 0.954,0.392c0.179,0.209 0.277,0.496 0.277,0.838l0,1.859l-1.547,0Z" style="fill:#fff;fill-rule:nonzero;"/><path d="M247.734,70.218c0,6.822 -4.365,10.551 -10.869,10.551c-6.783,0 -10.829,-3.769 -10.829,-10.551l0,-18.285c0,-0.753 0.477,-1.23 1.231,-1.23l1.227,0c0.396,0 1.265,-0.002 1.265,-0.002c0,0 0.004,0.852 0.004,1.232l0,18.285c0,5.276 3.096,7.297 7.102,7.297c4.045,0 7.139,-2.023 7.139,-7.297l0,-18.285c0,-0.753 0.474,-1.232 1.23,-1.232l2.5,0l0,19.517Z" style="fill:#fff;fill-rule:nonzero;"/><path d="M303.23,64.348c0,7.416 -4.363,14.239 -6.508,16.103l-3.728,0c-2.178,-1.864 -6.188,-8.687 -6.188,-16.103l0,-4.363c0,-0.755 0.44,-1.231 1.233,-1.231l0.91,0c0.474,0 1.275,-0.002 1.275,-0.002c0,0 -0.004,0.927 -0.004,1.233l0,4.363c0,6.186 2.457,11.303 4.801,13.604c2.299,-2.301 4.797,-7.418 4.797,-13.604l0,-4.363c0,-0.755 0.478,-1.231 1.228,-1.231l0.913,0c0.46,0 1.271,-0.002 1.271,-0.002l0,5.596Z" style="fill:#fff;fill-rule:nonzero;"/><path d="M307.607,72.082l0,-4.323c0,-5.909 4.006,-9.32 9.279,-9.32c4.323,0 7.418,1.863 7.418,6.225c0,3.849 -2.459,6.188 -6.783,6.188l-6.504,0l0,1.23c0,4.045 2.459,5.594 5.869,5.594c2.459,0 6.196,-1.364 6.196,-1.364c0,0 -0.004,0.805 -0.004,1.084l0,0.873c0,0.793 -0.082,1.071 -0.756,1.389c-0.318,0.158 -2.977,1.112 -5.436,1.112c-5.273,0 -9.279,-2.501 -9.279,-8.688M316.57,68.036c3.414,0 4.363,-1.228 4.363,-3.372c0,-2.338 -1.588,-3.132 -4.047,-3.132c-3.726,0 -5.869,1.864 -5.869,6.227l0,0.277l5.553,0Z" style="fill:#fff;fill-rule:nonzero;"/><path d="M346.769,64.665c0,1.983 1.35,2.182 3.096,2.618l2.654,0.635c3.373,0.791 6.027,2.141 6.027,6.347c0,4.798 -4.162,6.505 -8.681,6.505c-2.623,0 -5.118,-0.477 -5.399,-0.556c-0.359,-0.091 -0.939,-0.28 -0.939,-0.28c0,0 -0.014,-0.459 -0.014,-0.871l0,-1.072c0,-0.634 0.44,-0.911 0.996,-0.911c0.159,0 0.238,0 0.395,0.039c0.358,0.08 2.459,0.557 4.962,0.557c3.408,0 5.273,-0.951 5.273,-3.411c0,-1.866 -1.587,-2.7 -3.413,-3.095l-3.252,-0.794c-2.935,-0.673 -5.116,-2.339 -5.116,-5.711c0,-3.888 3.253,-6.226 8.368,-6.226c2.659,0 4.522,0.396 4.801,0.435c0.433,0.065 0.95,0.227 0.95,0.227c0,0 0.002,0.584 0.002,0.923l0,1.112c0,0.634 -0.476,0.873 -1.034,0.873c-0.671,0 -2.14,-0.478 -4.719,-0.478c-3.252,0 -4.957,0.952 -4.957,3.134" style="fill:#fff;fill-rule:nonzero;"/><path d="M402.016,74.858l-1.545,1.546c-1.588,1.587 -3.492,2.818 -6.309,2.818c-3.568,0 -5.789,-1.985 -5.789,-7.457l0,-11.78c0,-0.755 0.475,-1.231 1.229,-1.231l0.951,0c0.399,0 1.231,-0.001 1.231,-0.001l0,13.012c0,3.291 1.345,4.361 3.334,4.361c2.138,0 4.398,-2.18 5.63,-3.409l1.268,-1.269l0,-11.463c0,-0.755 0.436,-1.231 1.23,-1.231l0.911,0c0.42,0 1.269,-0.001 1.269,-0.001c0,0 0.004,0.875 0.004,1.232l0,17.69c0,7.416 -4.365,10.233 -11.783,10.233l-2.496,0c-0.405,0 -1.233,-0.004 -1.233,-0.004c0,0 0.002,-0.896 0.002,-1.266l0,-0.594c0,-0.793 0.475,-1.269 1.231,-1.269l2.496,0c5.869,0 8.369,-1.824 8.369,-6.822l0,-3.095Z" style="fill:#fff;fill-rule:nonzero;"/><path d="M383.344,77.353c0.391,0 0.707,0.129 0.922,0.359c0.199,0.213 0.307,0.51 0.307,0.871l0,1.862c0,0 -0.864,0.004 -1.229,0.004l-1.865,0c-4.324,0 -7.139,-2.459 -7.139,-7.141l0,-18.284c0,-0.375 -0.006,-1.228 -0.006,-1.228c0,0 0.856,-0.002 1.235,-0.002l0.951,0c0.756,0 1.23,0.476 1.23,1.23l0,3.728l4.959,0c0.793,0 1.229,0.475 1.229,1.229l0,0.636c0,0.411 -0.006,1.223 -0.006,1.223c0,0 -0.842,0.006 -1.223,0.006l-4.959,0l0,11.462c0,2.499 1.309,4.045 3.729,4.045l1.865,0Z" style="fill:#fff;fill-rule:nonzero;"/><path d="M281.473,79.222c0,0.408 -0.004,1.227 -0.004,1.227c0,0 -0.861,0.002 -1.226,0.002l-0.913,0c-0.795,0 -1.269,-0.475 -1.269,-1.229l0,-17.373l-2.42,0c-0.834,0 -1.23,-0.436 -1.23,-1.229l0,-0.635l0,-1.235c0,0 0.824,0.005 1.191,0.005l4.641,0c0.794,0 1.23,0.477 1.23,1.23l0,19.237ZM281.473,53.202c0,0.755 -0.436,1.23 -1.23,1.23l-0.913,0c-0.39,0 -1.269,-0.001 -1.269,-0.001l0,-1.229l0,-1.268c0,-0.754 0.474,-1.23 1.269,-1.23l0.913,0c0.396,0 1.226,-0.002 1.226,-0.002c0,0 0.004,0.854 0.004,1.232l0,1.268Z" style="fill:#fff;fill-rule:nonzero;"/><path d="M368.791,79.222c0,0.408 -0.004,1.227 -0.004,1.227c0,0 -0.863,0.002 -1.226,0.002l-0.913,0c-0.792,0 -1.269,-0.475 -1.269,-1.229l0,-17.373l-2.42,0c-0.83,0 -1.228,-0.436 -1.228,-1.229l0,-0.635l0,-1.235c0,0 0.82,0.005 1.189,0.005l4.641,0c0.791,0 1.23,0.477 1.23,1.23l0,19.237ZM368.791,53.202c0,0.753 -0.439,1.23 -1.23,1.23l-0.913,0c-0.392,0 -1.269,-0.001 -1.269,-0.001l0,-1.229l0,-1.268c0,-0.754 0.477,-1.23 1.269,-1.23l0.913,0c0.398,0 1.226,-0.002 1.226,-0.002c0,0 0.004,0.854 0.004,1.232l0,1.268Z" style="fill:#fff;fill-rule:nonzero;"/><path d="M256.707,62.798l1.545,-1.549c1.549,-1.545 3.414,-2.815 6.189,-2.815c3.409,0 5.871,1.864 5.871,7.456l0,14.552c0,0 -0.849,0.002 -1.23,0.002l-0.914,0c-0.793,0 -1.27,-0.473 -1.27,-1.229l0,-13.325c0,-3.411 -1.546,-4.363 -3.369,-4.363c-2.181,0 -4.365,2.181 -5.594,3.412l-1.228,1.268l0,14.237l-1.271,0l-0.911,0c-0.793,0 -1.228,-0.473 -1.228,-1.229l0,-19.234l0,-1.232c0,0 0.797,0.002 1.228,0.002l0.911,0c0.794,0 1.271,0.477 1.271,1.23l0,2.817Z" style="fill:#fff;fill-rule:nonzero;"/><path d="M145.06,76.407l-1.546,1.585c-1.587,1.547 -3.412,2.777 -6.227,2.777c-3.41,0 -5.868,-1.865 -5.868,-7.456l0,-13.324c0,-0.754 0.474,-1.23 1.229,-1.23l0.951,0c0.4,0 1.226,-0.004 1.226,-0.004c0,0 0.005,0.881 0.005,1.234l0,13.324c0,3.411 1.545,4.363 3.41,4.363c2.14,0 4.322,-2.183 5.551,-3.41l1.269,-1.231l0,-13.046c0,-0.754 0.436,-1.23 1.229,-1.23l0.913,0c0.405,0 1.268,-0.001 1.268,-0.001c0,0 0.001,0.863 0.001,1.231l0,19.233c0,0.752 -0.476,1.229 -1.269,1.229l-0.913,0c-0.392,0 -1.232,-0.004 -1.232,-0.004c0,0 0.003,-0.846 0.003,-1.225l0,-2.815Z" style="fill:#fff;fill-rule:nonzero;"/><path d="M163.944,61.846c-1.547,0 -3.376,1.536 -4.045,2.355c-0.668,0.819 -2.458,3.675 -2.458,3.675l0,11.346c0,0.374 -0.001,1.226 -0.001,1.226c0,0 -0.87,0.002 -1.269,0.002l-0.911,0c-0.794,0 -1.23,-0.476 -1.23,-1.228l-0.001,-20.463l2.142,-0.002c0.794,0 1.27,0.478 1.27,1.232l0,3.568l0.316,-0.477c1.627,-2.498 3.53,-4.322 6.346,-4.322l0.158,0c0.41,0 0.739,0.143 0.952,0.393c0.179,0.211 0.278,0.494 0.278,0.838l0,1.857l-1.547,0Z" style="fill:#fff;fill-rule:nonzero;"/><path d="M177.911,77.359c0.393,0 0.709,0.129 0.923,0.359c0.197,0.209 0.306,0.508 0.306,0.87l0,1.859c0,0 -0.865,0.004 -1.229,0.004l-1.865,0c-4.322,0 -7.137,-2.459 -7.137,-7.138l0,-18.281c0,-0.389 -0.001,-1.23 -0.001,-1.23l2.182,0c0.752,0 1.229,0.476 1.229,1.23l0,3.726l4.956,0c0.794,0 1.231,0.478 1.231,1.231l0,0.633c0,0.414 -0.006,1.224 -0.006,1.224c0,0 -0.843,0.006 -1.225,0.006l-4.956,0l0,11.461c0,2.5 1.308,4.046 3.727,4.046l1.865,0Z" style="fill:#fff;fill-rule:nonzero;"/><path d="M189.47,79.222c0,0.406 -0.001,1.225 -0.001,1.225c0,0 -0.866,0.004 -1.229,0.004l-0.911,0c-0.794,0 -1.269,-0.477 -1.269,-1.229l0,-17.37l-2.42,0c-0.832,0 -1.229,-0.436 -1.229,-1.23l0,-0.633l0,-1.235c0,0 0.822,0.004 1.19,0.004l4.639,0c0.793,0 1.23,0.478 1.23,1.231l0,19.233ZM189.47,53.207c0,0.754 -0.437,1.229 -1.23,1.229l-0.911,0l-1.271,0c0,0 0.002,-0.848 0.002,-1.229l0,-1.269c0,-0.754 0.475,-1.229 1.269,-1.229l2.14,0c0,0 0.001,0.852 0.001,1.229l0,1.269Z" style="fill:#fff;fill-rule:nonzero;"/><path d="M198.453,62.804l1.546,-1.547c1.546,-1.547 3.41,-2.815 6.187,-2.815c3.411,0 5.869,1.863 5.869,7.455l0,13.325c0,0.389 0.001,1.225 0.001,1.225c0,0 -0.848,0.003 -1.23,0.003l-0.913,0c-0.794,0 -1.269,-0.476 -1.269,-1.228l0,-13.325c0,-3.41 -1.546,-4.362 -3.371,-4.362c-2.181,0 -4.362,2.182 -5.591,3.411l-1.229,1.269l0,13.007c0,0.406 -0.008,1.225 -0.008,1.225c0,0 -0.896,0.003 -1.261,0.003l-0.913,0c-0.793,0 -1.229,-0.476 -1.229,-1.228l0,-19.234l0,-1.231c0,0 0.8,0.001 1.229,0.001l0.913,0c0.792,0 1.269,0.478 1.269,1.23l0,2.816Z" style="fill:#fff;fill-rule:nonzero;"/><path d="M122.991,50.675c0.004,0 0.009,0.002 0.014,0.002c-0.005,0 -0.01,-0.002 -0.014,-0.002" style="fill:#fff;fill-rule:nonzero;"/><path d="M123.005,50.676c0.053,0.01 0.106,0.021 0.16,0.03c-0.053,-0.01 -0.107,-0.02 -0.16,-0.03" style="fill:#fff;fill-rule:nonzero;"/><path d="M119.306,53.643c1.329,0 2.408,0.113 3.446,0.336c1.163,0.292 2.178,0.719 2.775,0.918c0.237,0.08 0.396,0.119 0.555,0.119c0.397,0 0.674,-0.237 0.674,-0.793l0.015,-1.295c0,-0.455 0.002,-1.107 0.002,-1.107c0,0 -0.017,-0.009 -0.041,-0.021c-0.121,-0.052 -0.489,-0.215 -0.755,-0.299c-0.44,-0.171 -1.515,-0.538 -2.813,-0.794c-0.054,-0.009 -0.106,-0.021 -0.159,-0.031c-0.006,0 -0.01,-0.002 -0.014,-0.002c-0.467,-0.088 -0.958,-0.158 -1.457,-0.201c-0.027,-0.002 -0.055,-0.005 -0.084,-0.008l-0.003,0c-0.497,-0.047 -1.002,-0.074 -1.506,-0.074c-8.685,0 -14.237,4.641 -14.237,13.326l0,3.726c0,7.733 4.006,13.326 13.007,13.326l1.864,0c2.3,0 4.68,-0.795 5.394,-1.07c0.319,-0.103 0.795,-0.321 0.795,-0.321c0,0 -0.002,-0.654 -0.002,-1.109l0,-0.991c0,-0.554 -0.277,-0.793 -0.674,-0.793c-0.16,0 -0.317,0.04 -0.556,0.118c-0.952,0.318 -2.974,0.914 -4.957,0.914l-1.864,0c-5.908,0 -9.319,-3.568 -9.319,-10.074l0,-3.726c0,-7.257 4.363,-10.074 9.914,-10.074" style="fill:#fff;fill-rule:nonzero;"/><path d="M115.829,117.438c0.003,0.001 0.005,0.001 0.008,0.002c-0.003,-0.001 -0.005,-0.001 -0.008,-0.002" style="fill:#fff;fill-rule:nonzero;"/><path d="M115.837,117.44c0.031,0.006 0.062,0.013 0.093,0.018c-0.031,-0.006 -0.062,-0.012 -0.093,-0.018" style="fill:#fff;fill-rule:nonzero;"/></g><g id="1"><g><text x="104.593px" y="136px" style="font-family:'SansaSoftPro-Normal';font-size:28px;fill:#fff;">T<tspan x="120.825px 141.201px " y="136px 136px ">HE</tspan></text><text x="164.183px" y="136px" style="font-family:'SansaSoftPro-Normal';font-size:28px;fill:#fff;">C<tspan x="181.731px " y="136px ">U</tspan></text><text x="201.463px" y="136px" style="font-family:'SansaSoftPro-Normal';font-size:28px;fill:#fff;">R</text><text x="219.531px" y="136px" style="font-family:'SansaSoftPro-Normal';font-size:28px;fill:#fff;">T<tspan x="235.763px 243.231px " y="136px 136px ">IN</tspan></text><text x="271.029px" y="136px" style="font-family:'SansaSoftPro-Normal';font-size:28px;fill:#fff;">I<tspan x="278.497px " y="136px ">N</tspan></text><text x="299.097px" y="136px" style="font-family:'SansaSoftPro-Normal';font-size:28px;fill:#fff;">S</text><text x="315.205px" y="136px" style="font-family:'SansaSoftPro-Normal';font-size:28px;fill:#fff;">T<tspan x="331.437px " y="136px ">I</tspan></text><text x="338.905px" y="136px" style="font-family:'SansaSoftPro-Normal';font-size:28px;fill:#fff;">T</text><text x="355.237px" y="136px" style="font-family:'SansaSoftPro-Normal';font-size:28px;fill:#fff;">U<tspan x="374.969px " y="136px ">T</tspan></text><text x="391.201px" y="136px" style="font-family:'SansaSoftPro-Normal';font-size:28px;fill:#fff;">E</text><text x="104.593px" y="165.988px" style="font-family:'SansaSoftPro-Normal';font-size:28px;fill:#fff;">F<tspan x="119.509px 139.661px " y="165.988px 165.988px ">OR</tspan></text><text x="164.827px" y="165.988px" style="font-family:'SansaSoftPro-Normal';font-size:28px;fill:#fff;">C<tspan x="182.375px " y="165.988px ">O</tspan></text><text x="202.527px" y="165.988px" style="font-family:'SansaSoftPro-Normal';font-size:28px;fill:#fff;">M</text><text x="225.859px" y="165.988px" style="font-family:'SansaSoftPro-Normal';font-size:28px;fill:#fff;">P<tspan x="242.511px " y="165.988px ">U</tspan></text><text x="262.243px" y="165.988px" style="font-family:'SansaSoftPro-Normal';font-size:28px;fill:#fff;">T</text><text x="276.775px" y="165.988px" style="font-family:'SansaSoftPro-Normal';font-size:28px;fill:#fff;">A</text><text x="293.441px" y="165.988px" style="font-family:'SansaSoftPro-Normal';font-size:28px;fill:#fff;">T<tspan x="309.673px " y="165.988px ">I</tspan></text><text x="317.141px" y="165.988px" style="font-family:'SansaSoftPro-Normal';font-size:28px;fill:#fff;">O</text><text x="337.393px" y="165.988px" style="font-family:'SansaSoftPro-Normal';font-size:28px;fill:#fff;">N</text></g></g></svg>