<?xml version="1.0" encoding="UTF-8" standalone="no"?>
<!DOCTYPE svg PUBLIC "-//W3C//DTD SVG 1.1//EN"
 "http://www.w3.org/Graphics/SVG/1.1/DTD/svg11.dtd">
<!-- Generated by graphviz version 3.0.0 (20220226.1711)
 -->
<!-- Pages: 1 -->
<svg width="680pt" height="404pt"
 viewBox="0.00 0.00 679.78 404.00" xmlns="http://www.w3.org/2000/svg" xmlns:xlink="http://www.w3.org/1999/xlink">
<g id="graph0" class="graph" transform="scale(1 1) rotate(0) translate(4 400)">
<!-- [root] google_compute_instance.vm_instance (expand) -->
<g id="node1" class="node">
<title>[root] google_compute_instance.vm_instance (expand)</title>
<polygon fill="none" stroke="black" points="382.06,-252 151.06,-252 151.06,-216 382.06,-216 382.06,-252"/>
<text text-anchor="middle" x="266.56" y="-230.3" font-family="Times,serif" font-size="14.00">google_compute_instance.vm_instance</text>
</g>
<!-- [root] google_compute_network.vpc_network (expand) -->
<g id="node2" class="node">
<title>[root] google_compute_network.vpc_network (expand)</title>
<polygon fill="none" stroke="black" points="383.06,-180 150.06,-180 150.06,-144 383.06,-144 383.06,-180"/>
<text text-anchor="middle" x="266.56" y="-158.3" font-family="Times,serif" font-size="14.00">google_compute_network.vpc_network</text>
</g>
<!-- [root] google_compute_instance.vm_instance (expand)&#45;&gt;[root] google_compute_network.vpc_network (expand) -->
<g id="edge1" class="edge">
<title>[root] google_compute_instance.vm_instance (expand)&#45;&gt;[root] google_compute_network.vpc_network (expand)</title>
<path fill="none" stroke="black" d="M266.56,-215.7C266.56,-207.98 266.56,-198.71 266.56,-190.11"/>
<polygon fill="black" stroke="black" points="270.06,-190.1 266.56,-180.1 263.06,-190.1 270.06,-190.1"/>
</g>
<!-- [root] provider[&quot;registry.terraform.io/hashicorp/google&quot;] -->
<g id="node4" class="node">
<title>[root] provider[&quot;registry.terraform.io/hashicorp/google&quot;]</title>
<polygon fill="none" stroke="black" points="266.56,-108 -0.06,-90 266.56,-72 533.17,-90 266.56,-108"/>
<text text-anchor="middle" x="266.56" y="-86.3" font-family="Times,serif" font-size="14.00">provider[&quot;registry.terraform.io/hashicorp/google&quot;]</text>
</g>
<!-- [root] google_compute_network.vpc_network (expand)&#45;&gt;[root] provider[&quot;registry.terraform.io/hashicorp/google&quot;] -->
<g id="edge2" class="edge">
<title>[root] google_compute_network.vpc_network (expand)&#45;&gt;[root] provider[&quot;registry.terraform.io/hashicorp/google&quot;]</title>
<path fill="none" stroke="black" d="M266.56,-143.7C266.56,-135.98 266.56,-126.71 266.56,-118.11"/>
<polygon fill="black" stroke="black" points="270.06,-118.1 266.56,-108.1 263.06,-118.1 270.06,-118.1"/>
</g>
<!-- [root] output.vm_instance_name -->
<g id="node3" class="node">
<title>[root] output.vm_instance_name</title>
<polygon fill="none" stroke="black" points="173.06,-324 18.06,-324 18.06,-288 179.06,-288 179.06,-318 173.06,-324"/>
<polyline fill="none" stroke="black" points="173.06,-324 173.06,-318 "/>
<polyline fill="none" stroke="black" points="179.06,-318 173.06,-318 "/>
<text text-anchor="middle" x="98.56" y="-302.3" font-family="Times,serif" font-size="14.00">output.vm_instance_name</text>
</g>
<!-- [root] output.vm_instance_name&#45;&gt;[root] google_compute_instance.vm_instance (expand) -->
<g id="edge3" class="edge">
<title>[root] output.vm_instance_name&#45;&gt;[root] google_compute_instance.vm_instance (expand)</title>
<path fill="none" stroke="black" d="M139.65,-287.88C162.72,-278.26 191.69,-266.19 216.13,-256.01"/>
<polygon fill="black" stroke="black" points="217.71,-259.15 225.59,-252.07 215.01,-252.68 217.71,-259.15"/>
</g>
<!-- [root] var.google_credentials -->
<g id="node5" class="node">
<title>[root] var.google_credentials</title>
<polygon fill="none" stroke="black" points="330.06,-36 197.06,-36 197.06,0 336.06,0 336.06,-30 330.06,-36"/>
<polyline fill="none" stroke="black" points="330.06,-36 330.06,-30 "/>
<polyline fill="none" stroke="black" points="336.06,-30 330.06,-30 "/>
<text text-anchor="middle" x="266.56" y="-14.3" font-family="Times,serif" font-size="14.00">var.google_credentials</text>
</g>
<!-- [root] provider[&quot;registry.terraform.io/hashicorp/google&quot;]&#45;&gt;[root] var.google_credentials -->
<g id="edge5" class="edge">
<title>[root] provider[&quot;registry.terraform.io/hashicorp/google&quot;]&#45;&gt;[root] var.google_credentials</title>
<path fill="none" stroke="black" d="M266.56,-71.7C266.56,-63.98 266.56,-54.71 266.56,-46.11"/>
<polygon fill="black" stroke="black" points="270.06,-46.1 266.56,-36.1 263.06,-46.1 270.06,-46.1"/>
</g>
<!-- [root] provider[&quot;registry.terraform.io/hashicorp/google&quot;] (close) -->
<g id="node6" class="node">
<title>[root] provider[&quot;registry.terraform.io/hashicorp/google&quot;] (close)</title>
<ellipse fill="none" stroke="black" cx="434.56" cy="-306" rx="237.46" ry="18"/>
<text text-anchor="middle" x="434.56" y="-302.3" font-family="Times,serif" font-size="14.00">[root] provider[&quot;registry.terraform.io/hashicorp/google&quot;] (close)</text>
</g>
<!-- [root] provider[&quot;registry.terraform.io/hashicorp/google&quot;] (close)&#45;&gt;[root] google_compute_instance.vm_instance (expand) -->
<g id="edge4" class="edge">
<title>[root] provider[&quot;registry.terraform.io/hashicorp/google&quot;] (close)&#45;&gt;[root] google_compute_instance.vm_instance (expand)</title>
<path fill="none" stroke="black" d="M394.32,-288.23C371.07,-278.55 341.63,-266.28 316.87,-255.97"/>
<polygon fill="black" stroke="black" points="318.21,-252.73 307.63,-252.12 315.52,-259.19 318.21,-252.73"/>
</g>
<!-- [root] root -->
<g id="node7" class="node">
<title>[root] root</title>
<ellipse fill="none" stroke="black" cx="266.56" cy="-378" rx="47.39" ry="18"/>
<text text-anchor="middle" x="266.56" y="-374.3" font-family="Times,serif" font-size="14.00">[root] root</text>
</g>
<!-- [root] root&#45;&gt;[root] output.vm_instance_name -->
<g id="edge6" class="edge">
<title>[root] root&#45;&gt;[root] output.vm_instance_name</title>
<path fill="none" stroke="black" d="M235.74,-364.16C211.49,-354.05 177.18,-339.76 148.94,-327.99"/>
<polygon fill="black" stroke="black" points="150.2,-324.73 139.62,-324.11 147.51,-331.19 150.2,-324.73"/>
</g>
<!-- [root] root&#45;&gt;[root] provider[&quot;registry.terraform.io/hashicorp/google&quot;] (close) -->
<g id="edge7" class="edge">
<title>[root] root&#45;&gt;[root] provider[&quot;registry.terraform.io/hashicorp/google&quot;] (close)</title>
<path fill="none" stroke="black" d="M297.37,-364.16C321.79,-353.98 356.41,-339.56 384.76,-327.75"/>
<polygon fill="black" stroke="black" points="386.23,-330.93 394.11,-323.85 383.53,-324.47 386.23,-330.93"/>
</g>
</g>
</svg>
